HIERARCHY
ROOT Hips
{
	OFFSET -14.64140 90.27770 -84.91600
	CHANNELS 6 Xposition Yposition Zposition Zrotation Xrotation Yrotation
	JOINT Spine
	{
		OFFSET 0.00000 13.20850 -1.60436
		CHANNELS 3 Zrotation Xrotation Yrotation
		JOINT Spine1
		{
			OFFSET 0.00000 8.61716 0.00000
			CHANNELS 3 Zrotation Xrotation Yrotation
			JOINT Spine2
			{
				OFFSET 0.00000 8.61717 0.00000
				CHANNELS 3 Zrotation Xrotation Yrotation
				JOINT Spine3
				{
					OFFSET 0.00000 8.61717 0.00000
					CHANNELS 3 Zrotation Xrotation Yrotation
					JOINT Neck
					{
						OFFSET 0.00000 11.07920 1.10792
						CHANNELS 3 Zrotation Xrotation Yrotation
						JOINT Neck1
						{
							OFFSET 0.00000 7.08032 0.00000
							CHANNELS 3 Zrotation Xrotation Yrotation
							JOINT Head
							{
								OFFSET 0.00000 7.08031 0.00000
								CHANNELS 3 Zrotation Xrotation Yrotation
								End site
								{
									OFFSET 0.00000 0.00000 0.00000
								}
							}
						}
					}
					JOINT RightShoulder
					{
						OFFSET -0.01000 7.91373 5.19711
						CHANNELS 3 Zrotation Xrotation Yrotation
						JOINT RightArm
						{
							OFFSET -18.41580 0.00000 0.00000
							CHANNELS 3 Zrotation Xrotation Yrotation
							JOINT RightForeArm
							{
								OFFSET -29.11090 0.00000 0.00000
								CHANNELS 3 Zrotation Xrotation Yrotation
								JOINT RightHand
								{
									OFFSET -24.65040 0.00000 0.00000
									CHANNELS 3 Zrotation Xrotation Yrotation
									JOINT RightHandThumb1
									{
										OFFSET -5.35114 -0.85590 3.97906
										CHANNELS 3 Zrotation Xrotation Yrotation
										JOINT RightHandThumb2
										{
											OFFSET -4.52789 0.00000 0.00000
											CHANNELS 3 Zrotation Xrotation Yrotation
											JOINT RightHandThumb3
											{
												OFFSET -2.46976 0.00000 0.00000
												CHANNELS 3 Zrotation Xrotation Yrotation
												End site
												{
													OFFSET 0.00000 0.00000 0.00000
												}
											}
										}
									}
									JOINT RightHandIndex1
									{
										OFFSET -14.26970 0.00000 2.88139
										CHANNELS 3 Zrotation Xrotation Yrotation
										JOINT RightHandIndex2
										{
											OFFSET -5.48836 0.00000 0.00000
											CHANNELS 3 Zrotation Xrotation Yrotation
											JOINT RightHandIndex3
											{
												OFFSET -3.01859 0.00000 0.00000
												CHANNELS 3 Zrotation Xrotation Yrotation
												End site
												{
													OFFSET 0.00000 0.00000 0.00000
												}
											}
										}
									}
									JOINT RightHandMiddle1
									{
										OFFSET -14.26970 0.00000 -0.09147
										CHANNELS 3 Zrotation Xrotation Yrotation
										JOINT RightHandMiddle2
										{
											OFFSET -6.17441 0.00000 0.00000
											CHANNELS 3 Zrotation Xrotation Yrotation
											JOINT RightHandMiddle3
											{
												OFFSET -3.56743 0.00000 0.00000
												CHANNELS 3 Zrotation Xrotation Yrotation
												End site
												{
													OFFSET 0.00000 0.00000 0.00000
												}
											}
										}
									}
									JOINT RightHandRing1
									{
										OFFSET -12.69180 0.00000 -3.06433
										CHANNELS 3 Zrotation Xrotation Yrotation
										JOINT RightHandRing2
										{
											OFFSET -5.62556 0.00000 0.00000
											CHANNELS 3 Zrotation Xrotation Yrotation
											JOINT RightHandRing3
											{
												OFFSET -3.56744 0.00000 0.00000
												CHANNELS 3 Zrotation Xrotation Yrotation
												End site
												{
													OFFSET 0.00000 0.00000 0.00000
												}
											}
										}
									}
									JOINT RightHandPinky1
									{
										OFFSET -11.11390 0.00000 -6.03719
										CHANNELS 3 Zrotation Xrotation Yrotation
										JOINT RightHandPinky2
										{
											OFFSET -4.52789 0.00000 0.00000
											CHANNELS 3 Zrotation Xrotation Yrotation
											JOINT RightHandPinky3
											{
												OFFSET -2.46976 0.00000 0.00000
												CHANNELS 3 Zrotation Xrotation Yrotation
												End site
												{
													OFFSET 0.00000 0.00000 0.00000
												}
											}
										}
									}
								}
							}
						}
					}
					JOINT LeftShoulder
					{
						OFFSET 0.01000 7.91373 5.19711
						CHANNELS 3 Zrotation Xrotation Yrotation
						JOINT LeftArm
						{
							OFFSET 18.41580 0.00000 0.00000
							CHANNELS 3 Zrotation Xrotation Yrotation
							JOINT LeftForeArm
							{
								OFFSET 29.11090 0.00000 0.00000
								CHANNELS 3 Zrotation Xrotation Yrotation
								JOINT LeftHand
								{
									OFFSET 24.65040 0.00000 0.00000
									CHANNELS 3 Zrotation Xrotation Yrotation
									JOINT LeftHandThumb1
									{
										OFFSET 5.35114 -0.85590 3.97906
										CHANNELS 3 Zrotation Xrotation Yrotation
										JOINT LeftHandThumb2
										{
											OFFSET 4.52789 0.00000 0.00000
											CHANNELS 3 Zrotation Xrotation Yrotation
											JOINT LeftHandThumb3
											{
												OFFSET 2.46977 0.00000 0.00000
												CHANNELS 3 Zrotation Xrotation Yrotation
												End site
												{
													OFFSET 0.00000 0.00000 0.00000
												}
											}
										}
									}
									JOINT LeftHandIndex1
									{
										OFFSET 14.26970 0.00000 2.88139
										CHANNELS 3 Zrotation Xrotation Yrotation
										JOINT LeftHandIndex2
										{
											OFFSET 5.48836 0.00000 0.00000
											CHANNELS 3 Zrotation Xrotation Yrotation
											JOINT LeftHandIndex3
											{
												OFFSET 3.01859 0.00000 0.00000
												CHANNELS 3 Zrotation Xrotation Yrotation
												End site
												{
													OFFSET 0.00000 0.00000 0.00000
												}
											}
										}
									}
									JOINT LeftHandMiddle1
									{
										OFFSET 14.26970 0.00000 -0.09147
										CHANNELS 3 Zrotation Xrotation Yrotation
										JOINT LeftHandMiddle2
										{
											OFFSET 6.17440 0.00000 0.00000
											CHANNELS 3 Zrotation Xrotation Yrotation
											JOINT LeftHandMiddle3
											{
												OFFSET 3.56744 0.00000 0.00000
												CHANNELS 3 Zrotation Xrotation Yrotation
												End site
												{
													OFFSET 0.00000 0.00000 0.00000
												}
											}
										}
									}
									JOINT LeftHandRing1
									{
										OFFSET 12.69180 0.00000 -3.06433
										CHANNELS 3 Zrotation Xrotation Yrotation
										JOINT LeftHandRing2
										{
											OFFSET 5.62556 0.00000 0.00000
											CHANNELS 3 Zrotation Xrotation Yrotation
											JOINT LeftHandRing3
											{
												OFFSET 3.56744 0.00000 0.00000
												CHANNELS 3 Zrotation Xrotation Yrotation
												End site
												{
													OFFSET 0.00000 0.00000 0.00000
												}
											}
										}
									}
									JOINT LeftHandPinky1
									{
										OFFSET 11.11390 0.00000 -6.03719
										CHANNELS 3 Zrotation Xrotation Yrotation
										JOINT LeftHandPinky2
										{
											OFFSET 4.52789 0.00000 0.00000
											CHANNELS 3 Zrotation Xrotation Yrotation
											JOINT LeftHandPinky3
											{
												OFFSET 2.46976 0.00000 0.00000
												CHANNELS 3 Zrotation Xrotation Yrotation
												End site
												{
													OFFSET 0.00000 0.00000 0.00000
												}
											}
										}
									}
								}
							}
						}
					}
					JOINT pCube4
					{
						OFFSET 0.00000 10.91090 1.10792
						CHANNELS 3 Zrotation Xrotation Yrotation
						End site
						{
							OFFSET 0.00000 0.00000 0.00000
						}
					}
				}
			}
		}
	}
	JOINT RightUpLeg
	{
		OFFSET -9.98441 0.00000 0.00000
		CHANNELS 3 Zrotation Xrotation Yrotation
		JOINT RightLeg
		{
			OFFSET 0.00000 -42.11790 0.00000
			CHANNELS 3 Zrotation Xrotation Yrotation
			JOINT RightFoot
			{
				OFFSET 0.00000 -45.00020 -0.00001
				CHANNELS 3 Zrotation Xrotation Yrotation
				JOINT RightForeFoot
				{
					OFFSET 0.00000 -3.74820 0.00000
					CHANNELS 3 Zrotation Xrotation Yrotation
					JOINT RightToeBase
					{
						OFFSET 0.00000 0.06325 14.43120
						CHANNELS 3 Zrotation Xrotation Yrotation
						End site
						{
							OFFSET 0.00000 0.00000 0.00000
						}
					}
				}
			}
		}
	}
	JOINT LeftUpLeg
	{
		OFFSET 9.98441 0.00000 0.00000
		CHANNELS 3 Zrotation Xrotation Yrotation
		JOINT LeftLeg
		{
			OFFSET 0.00000 -42.11800 0.00000
			CHANNELS 3 Zrotation Xrotation Yrotation
			JOINT LeftFoot
			{
				OFFSET 0.00000 -45.00070 0.00000
				CHANNELS 3 Zrotation Xrotation Yrotation
				JOINT LeftForeFoot
				{
					OFFSET 0.00000 -3.74824 0.00000
					CHANNELS 3 Zrotation Xrotation Yrotation
					JOINT LeftToeBase
					{
						OFFSET 0.00000 0.06325 14.43110
						CHANNELS 3 Zrotation Xrotation Yrotation
						End site
						{
							OFFSET 0.00000 0.00000 0.00000
						}
					}
				}
			}
		}
	}
}
MOTION
Frames: 4
Frame Time: 0.050000
0.006045779397519546 0.012948091253071219 0.04347284890118025 0.013921459026316417 -0.039726989301367595 -0.032334339478630715 0.3767739025567855 1.463975052012714 -1.4376969112229554 -0.5222919799097406 3.758424386602238 0.3308924617598076 -0.6888762378933851 -1.6069540783118268 0.787336012690693 -0.9115439176209091 -0.4825023556017599 -0.37154123187447397 -0.40184172006802293 12.841154670156829 0.23310628431439226 0.6723928804466657 -0.581161910908895 -0.010982251665357719 0.7017557561791377 -16.222401687186483 -0.07785586245274281 -2.723787155080557 1.39803700716471 -15.335452180615151 72.33675606568349 14.683970564141282 5.20329090145832 13.240767935332098 5.621868339362716 89.52657883095662 23.70262760946159 -0.34497087928366327 -4.963537443975955 4.560066462265187 -0.16096790896088975 -1.590473220019273 0.014298872082383174 -0.0028635160603743283 -56.24075964815011 -0.013283335866294052 -0.032775349838096 -56.24766565379027 -38.7596487194792 0.009387825361455935 0.024957108333322185 0.032952747224837556 0.015461747231440521 0.03665942221192302 -0.026525750846164 -0.0027574765457950108 0.03880293238262847 -36.65403522230949 0.047304707621637666 0.005112444341831875 -0.022610159088141544 -0.011861133438125792 -0.040945865577050405 0.020202143074725266 0.0003785237015283055 -0.023708194106466546 -19.768860219402296 -0.022821243568417394 -0.03948588313073915 -0.03318558934047045 0.015700612589744894 -0.02489783241668255 0.04482089065467924 0.04580286183962812 -0.04099599149942837 24.06587907031508 -0.036683393056237704 0.03995711259030862 28.908648596342406 -0.021343503896520996 -0.022067956951170278 28.83640135845126 0.027307955915169053 0.024343323351064688 5.516854898834177 1.5164213087656084 14.178923140292587 -76.8602309651794 26.54216161108618 -8.517457292190732 -58.93417403479546 15.570474836018652 -103.41270771101169 -21.318080325931884 0.6395475500367371 0.9763612038913287 -0.5210827124281308 0.04883463689777193 -8.137040872583631 -0.012458690413537823 0.014839281193013722 44.55363423198066 0.04620132103330641 -0.0094326524658296 44.59920087492361 12.4845446287994 0.015107069488185944 0.034656799281637965 0.015995583215552812 0.02805162130448093 -0.02401744767260547 0.009504277977896406 -0.022642588525230635 0.03422458233702855 11.077229851270893 -0.04192937961254294 -0.049356018590551526 -0.0069396672165371815 -0.04267605057429006 0.019354809769028675 0.01923322458155299 -0.04361188040689334 0.002138406241986514 4.784304927421778 -0.0073898065906383825 -0.016774269217230273 0.03374713377472524 -0.036813316408912194 0.01281675925697153 0.0038209315002121704 0.008963119172319645 0.014094613402311655 -5.599631562423094 -0.004871350505687783 -0.0003096953990805048 -6.711434131337869 0.02191306319194009 0.010343914271895512 -6.70383069906409 0.004480286590895325 0.006178392379536643 0.022124758492125765 -0.031088800588269905 0.03621878855095884 8.082321570578921 3.4618426563302105 -19.22380183328635 0.012638028141171832 10.372706361447829 -0.02865221418178766 -5.589874269662279 -15.615848491873095 3.1485651803628794 0.024633850774916494 0.0046475171129710755 -0.00486394005779288 0.038329743151478406 4.696223654147621 -0.014815121265371937 12.420147299958675 -8.252500086862977 6.875025566879358 0.0011310472621975725 46.35635304465899 -0.025955416475090375 -4.334262356081141 -14.772858633409822 -3.7963805678868026 -0.03327082986548912 0.01973994389777863 0.04162241788832803 0.02796036900838349 -10.773240690381268 -0.03496652856755678 
0.011165957350729014 -0.0015750958660467017 0.003726371882280974 -0.004613624259661328 0.00932242918334586 0.0002926262422858311 -0.07272994138685424 1.4113377186189937 -1.3412029093530589 -0.511753000862167 3.868400525507456 0.32236204746021757 -0.7114015456019922 -1.7038290962540925 0.7206990599021097 -0.8923607147111293 -0.5293829832409547 -0.4130965066606553 -0.3448392607961196 13.009492856727404 0.3062286994189609 0.6807542125177579 -0.6079558744570317 0.055815123225109495 0.7639196241270652 -16.201459350538908 -0.012977905264797682 -2.323450313344395 1.227089966821279 -15.190754079272365 71.93949417447995 14.881875832816537 5.146193483478417 12.475931366103643 6.054239784182806 87.52104168800803 24.08714396408289 -0.2984870033963294 -4.712182122940653 4.571929269378756 -0.09841592562645705 -1.5620329169160596 0.01347649703195862 0.03233108369703247 -56.274168408328975 -0.029945911135058057 0.029378603917947832 -56.23506815555701 -38.794782199034785 -0.0004145109829745082 -0.04004859545778603 -0.002376331012976049 0.013054914082275292 0.02304491177695035 -0.04764311341641443 0.014895419204386261 -0.04862470115577922 -36.65736860708 0.002875234020237832 -0.03751753917115502 0.005560524938726812 -0.016123707471796596 -0.004695096059824457 -0.006252179155730173 -0.0034055267809420075 -0.03381877782622087 -19.72104526875988 -0.019245032536922235 -0.005999210095147777 -0.023558422688565162 0.013359251331500907 0.024591164944268492 -0.01576604292065675 -0.006553742223614634 -0.009605081736698424 24.053031040903644 -0.04604836034160845 0.021128926544885747 28.881702172454016 -0.026801517045088336 0.037816376693703496 28.84953826217873 -0.018266628045836952 0.01878287791993288 5.222609041623809 1.5195278223219406 14.178069007416104 -76.90901055024248 26.9454161736261 -8.7814754695308 -55.591059779084546 14.572853125490974 -102.5764310617787 -21.207967482466437 0.8756503525487884 0.8594678939902132 -0.4700269214111703 0.11518530205198678 -8.100830037981645 -0.04828290504632613 -0.008784996963404233 44.56437341522119 -0.043923096999445604 -0.01688508752463524 44.565629110486924 12.434123522082608 -0.026978866170807102 -0.025907476877015518 0.0228856330550583 0.03705684629569888 0.046516996120630115 0.022806112285682936 0.022720010218926757 -0.014592097062986689 11.080654362878542 0.009641718371906343 -0.04238582538250166 0.005794830113416753 -0.0365682400688662 0.02633264939307232 -0.04170395922842663 0.001682418980901375 0.028281679253976733 4.742159259769533 -0.04218893704728854 -0.026417543418686715 0.04063239160330005 0.024408889327532348 -0.00853489170544433 0.01257973424783204 0.016208559176920212 2.980838913854324e-05 -5.555049254723873 0.029279098758575872 0.00636336847262455 -6.7410047902549 0.023642226719248746 -0.03307597273629185 -6.698300425260635 -0.04339731635695395 0.02916186839589933 -0.03028467524464952 -0.04359880441018111 -0.045308325047723814 8.011615151302507 3.498747608448399 -19.25611210787202 0.04491046065022538 10.414415857492848 -0.0003616534805093406 -5.616791101340873 -15.622352137723995 3.157528560859791 -0.0016113306802714145 0.04016497983244779 -0.007536565335584105 0.01824284513923334 4.647911801118168 0.03999103098767076 12.44418156571338 -8.203026868472605 6.878147765858084 -0.03896691400794955 46.418231191451014 -0.0071269258934801415 -4.286619591258332 -14.700460952582901 -3.8676790800340357 -0.03529695150575724 -0.023233236430934303 -0.022375927102602236 -0.019833285209980085 -10.731674584225342 0.02818013192491547 
0.005737422244615837 -0.005566391504429249 -0.03416654208337161 -0.026689892392714427 0.03408747469678446 0.006376046005697799 -0.5291047568657896 1.3998037390034366 -1.268808502062961 -0.4978356901814011 3.9486904277937813 0.3068568385735724 -0.7684049519615214 -1.6867629857386852 0.629154383773751 -0.8142643782864251 -0.48051164317994455 -0.4137936467269234 -0.4328951234261706 13.239210238682771 0.37928548624648806 0.6960079805388252 -0.6605375951493507 0.21952287848140284 0.7718490717324067 -16.17651432150408 -0.08318002529031035 -1.8014991355280165 1.0412004654263478 -15.180540611534118 71.46156192823584 14.259980483302767 5.248289956765474 12.347180571902244 6.992358229569473 85.05435784685726 24.66676284221635 -0.3211888894622486 -4.2981885891718425 4.48877620482998 -0.14202440877377456 -1.602430227744677 -0.014570778058705974 0.0056978489631315295 -56.21359819566151 -0.014666012380278957 -0.0001297292012234093 -56.23682233854616 -38.80712411532565 -0.018940731315513003 0.02827691316372114 -0.007714421917950914 -0.04909558089324786 -0.008144037610803945 0.016555530816488032 0.018785075004555146 0.005103472195378463 -36.6956536960939 -0.00039782188479082294 -0.029984886427605845 0.04829106566759845 -0.03245131280092046 0.013844279598531616 -0.011130330891544015 0.01993955996653174 -0.023592312528999522 -19.7800629004654 -0.02823634495509976 -0.0371434929247453 -0.0337536332031951 0.008405859108362165 -0.04112647843837937 -0.018369909351678388 0.018293305450622195 0.022324181977309704 24.082433794261533 -0.016863515935047983 -0.0472573839083688 28.826800771734757 -0.019433877576867726 -0.03915245097671053 28.87108695866408 -0.04723620784096752 -0.01378047968135047 4.903328034298683 1.4282528967390387 14.174252222244826 -76.7488962084139 26.944612053358142 -9.197369446754918 -51.756474159468446 13.630948197770183 -101.71574739366311 -21.145472058816168 1.7400781091946638 0.27982817150160766 -0.48735141296531875 0.08527894658230997 -8.090924893498782 0.012540579587763582 -0.00034076809420999384 44.616018588514635 -0.012215632636630325 -0.04414363920078061 44.59004294311654 12.471194885927288 -0.02572083944005798 0.035297324322266295 -0.028540672036452504 -0.0073849237013540025 -0.004668831340672218 -0.04272119399285734 0.01645514219800847 0.03706519854275948 11.141236168517393 -0.03875644064091247 0.00809678005976256 -0.0010678951375829525 0.01069065994243314 -0.013571411361481364 -0.023889706694535648 0.023948242607241 0.006306534290207782 4.736042138052729 0.002259121625197015 -0.0026033115974970667 -0.008853109480169851 -0.042984585471467454 0.016073716881649942 0.011270194162884753 0.0018132295127214382 0.02592047985862432 -5.624018927096912 0.022258523600769162 -0.03527118858204748 -6.743316382889312 0.009031945488318385 -0.02901813477584697 -6.713745979963657 0.036919641128441635 0.025486699385834893 -0.027393426051196268 0.024896709265653186 -0.04790021544456028 8.070562594319952 3.457147323757904 -19.202885838344617 -0.003162220297703423 10.392108134233473 -0.010576694920532665 -5.652899322571341 -15.690195312907994 3.2030214981488165 -0.024734487895655025 0.03894778537639564 -0.031155068093603473 -0.03481897002990478 4.723852311887174 -0.049861107780375655 12.507590131724353 -8.232199796221717 6.929198479471356 -0.00953050696939073 46.36142541706399 -0.04304972299240634 -4.311789811013088 -14.790782255936616 -3.8787725762301033 0.03935494701969687 -0.03750962166347063 -0.041619718882636055 -0.037166063124516376 -10.774277615152846 0.0314494947843189 
0.02146557080813867 -0.039436744618027486 -0.005335129925439686 -0.012681036219565274 0.021066048779730097 -0.04126548023666834 -0.721293761164231 1.4644348065049215 -1.172904494692637 -0.446237621671502 3.941646711575768 0.32554395693992444 -0.7515501526209729 -1.7345995497469509 0.548765570599732 -0.8006553979135481 -0.5193070049202811 -0.4439389112156572 -0.4375047318824479 13.390648040940226 0.4057033713626354 0.7262773790703423 -0.6975991533521849 0.3310304073575248 0.7111330432367472 -16.322916822194372 0.006874240093209659 -1.7590270771596022 1.0295837831214065 -15.239337631852575 71.35045684731355 12.46091215757254 5.58171643308949 12.224256443305775 8.353195806567138 82.40241361949442 25.12435775180373 -0.29012229836243664 -3.5933968827123093 4.544492669890207 -0.161772341049993 -1.6402129162110348 -0.007767935326016911 0.04109663711463661 -56.272095621693026 0.023274046147162344 -0.028850678728675246 -56.21851638320739 -38.792891059677196 -0.006831845166923537 -0.007310830607960707 -0.007109684167879463 -0.045753552279278194 0.025745292226813345 0.0220834420783454 -0.034378113836791416 -0.026434322139052974 -36.674815567560564 0.01741559378676402 -0.01024203376234126 -0.022861348552408563 0.015888996162307403 0.018157850108920473 -0.003727927412415471 0.0033816667698720166 0.007257772862832341 -19.72026714537764 -0.0011188524595394315 -0.04597394401025976 -0.009521045475176387 0.01673941175011644 -0.040874630890054886 -0.021584702485662795 -0.015763008257473274 0.006248720577193237 24.060336773486114 -0.04304261435077589 0.0017063780324307759 28.888717343953125 0.014805479602422417 -0.019417670307250907 28.86706336024844 0.03096738980020967 0.004283766757971056 4.966352453685213 1.4195794363833922 14.250061641613971 -76.59553642809792 26.766222826164036 -9.88768511619821 -47.45498665842343 12.549724063899545 -100.94874429883396 -21.124266951288927 2.2948726650951716 -0.238492767138578 -0.5116180446186323 0.11474715274907733 -8.119340436885606 -0.033285333375017725 0.00994129357376404 44.604491786572225 0.023619836092450445 0.03822504056209082 44.55100730930971 12.480040928859548 -0.02596065050846015 0.045556768465698505 0.0002030443449484821 0.007601702520383546 -0.005362123971062562 -0.03873404788809413 -0.026118498570575056 -0.017600145567199847 11.143796592562039 -0.010105555834772552 -0.04667163345167469 -0.020566013486477654 0.04146229067510232 0.04066858238231284 -0.019026552145658834 -0.007711486505487398 0.01960814656098585 4.757814901882275 -0.017519980224221403 0.01762700832453876 0.0004594207176824325 0.0310005345359635 0.014072479676955804 0.016276636087076343 0.0009540824162975224 0.018577550357134997 -5.636796162827552 -0.027047654555008325 0.01313467334567745 -6.738185133788028 -0.018050434520122872 -0.012260783453382591 -6.713281997860953 -0.046880794303615976 -0.013044409863509155 -0.014671737405644734 -0.008914124968175728 0.03073774451601241 8.058705666158657 3.4474287190840553 -19.175342266579843 0.04761149407508312 10.395612408035216 0.02769489665945059 -5.643938710149202 -15.7008449097581 3.224152480870703 -0.04449215677619892 -0.010772119187629027 0.01967794555669457 0.04890508804750305 4.697862509572683 -0.0071109211559695846 12.507869364067082 -8.245467701104978 6.899819160900896 0.04061842297643038 46.38716799845205 -0.007962873342072392 -4.343761615172834 -14.742512547987381 -3.805489543927426 0.023103780722901028 0.02913123926007562 -0.012291494957032353 -0.037918292927863397 -10.789247228384992 0.012460755959480213 
